# xmcd
#
# Track frame offsets: 
#        150
#        18741
#        37007
#        56585
#        69331
#        91275
#        113684
#        129564
#        145284
#        163095
#        179511
#
# Disc length: 2653 seconds
#
# Revision: 0
# Processed by: cddbd v1.5.2PL0 Copyright (c) Steve Scherf et al.
# Submitted via: ExactAudioCopyFreeDBPlugin 1.0
#
DISCID=9b0a5b0b
DTITLE=Prinz Grizzley - Come on in
DYEAR=2017
DGENRE=Country
TTITLE0=Wide open country
TTITLE1=Give me one more reason
TTITLE2=Fiery eyes
TTITLE3=Mountain's milk
TTITLE4=Irene
TTITLE5=Where's your fire gone
TTITLE6=I may be late
TTITLE7=I can see darkness
TTITLE8=Walls
TTITLE9=Personal hell
TTITLE10=Tell me why
EXTD=
EXTT0=
EXTT1=
EXTT2=
EXTT3=
EXTT4=
EXTT5=
EXTT6=
EXTT7=
EXTT8=
EXTT9=
EXTT10=
PLAYORDER=
